<?xml version="1.0" encoding="UTF-8" standalone="no"?>
<svg
   xmlns:dc="http://purl.org/dc/elements/1.1/"
   xmlns:cc="http://creativecommons.org/ns#"
   xmlns:rdf="http://www.w3.org/1999/02/22-rdf-syntax-ns#"
   xmlns:svg="http://www.w3.org/2000/svg"
   xmlns="http://www.w3.org/2000/svg"
   width="100"
   height="100"
   viewBox="0 0 100 100"
   version="1.1"
   id="svg8">
  <defs
     id="defs2">
    <rect
       x="2.0203051"
       y="11.616754"
       width="97.732259"
       height="88.388348"
       id="rect835" />
  </defs>
  <metadata
     id="metadata5">
    <rdf:RDF>
      <cc:Work
         rdf:about="">
        <dc:format>image/svg+xml</dc:format>
        <dc:type
           rdf:resource="http://purl.org/dc/dcmitype/StillImage" />
        <dc:title></dc:title>
      </cc:Work>
    </rdf:RDF>
  </metadata>
  <g
     id="layer1">
    <path
       id="rect864"
       style="fill:#dcdcdc;fill-opacity:1;fill-rule:evenodd;stroke-width:1.00157;stroke-linecap:round;stroke-linejoin:round;stroke-miterlimit:4;stroke-dasharray:none;paint-order:markers fill stroke"
       d="m 20,10 h 60 c 5.54,0 10,4.46 10,10 v 60 c 0,5.54 -4.46,10 -10,10 H 20 C 14.46,90 10,85.54 10,80 V 20 c 0,-5.54 4.46,-10 10,-10 z" />
    <path
       id="rect862"
       style="fill:#aaaaaa;fill-opacity:1;fill-rule:evenodd;stroke-width:1.00157;stroke-linecap:round;stroke-linejoin:round;stroke-miterlimit:4;stroke-dasharray:none;paint-order:markers fill stroke"
       d="M 15,5 C 9.46,5 5,9.46 5,15 v 70 c 0,5.54 4.46,10 10,10 h 70 c 5.54,0 10,-4.46 10,-10 V 15 C 95,9.46 90.54,5 85,5 Z m 5,5 h 60 c 5.54,0 10,4.46 10,10 v 60 c 0,5.54 -4.46,10 -10,10 H 20 C 14.46,90 10,85.54 10,80 V 20 c 0,-5.54 4.46,-10 10,-10 z m 0,10 v 5 h 40 v -5 z m 0,10 v 5 h 20 v -5 z m 0,10 v 5 h 55 v -5 z m 0,10 v 5 h 30 v -5 z" />
  </g>
</svg>
